# xmcd
#
# Track frame offsets:
#	150
#	11903
#	22576
#	33534
#	48107
#	58465
#	69445
#	80950
#	89815
#	99558
#	116088
#	130998
#
# Disc length: 1869 seconds
#
# Revision: 1
# Processed by: cddbd v1.5.2PL0 Copyright (c) Steve Scherf et al.
# Submitted via: audiograbber 1.83.01
#
DISCID=a8074b0c
DTITLE=Flatt and Scruggs - Hard Travelin'
DYEAR=1963
DGENRE=Country
TTITLE0=Hard Travelin'
TTITLE1=Dixie Home
TTITLE2=The Wreck Of The Old 97
TTITLE3=Over The Hill To The Poorhouse
TTITLE4=Drowned In The Deep Blue Sea
TTITLE5=Coal Miner's Blues
TTITLE6=Pastures Of Plenty
TTITLE7=The Ballad Of Jed Clampett
TTITLE8=My Native Home
TTITLE9=When I Left East Virginia
TTITLE10=99 Years Is Almost For Life
TTITLE11=Bound To Ride
EXTD=
EXTT0=
EXTT1=
EXTT2=
EXTT3=
EXTT4=
EXTT5=
EXTT6=
EXTT7=
EXTT8=
EXTT9=
EXTT10=
EXTT11=
PLAYORDER=
